<mxfile host="Electron" modified="2023-04-17T02:38:45.605Z" agent="Mozilla/5.0 (Windows NT 10.0; Win64; x64) AppleWebKit/537.36 (KHTML, like Gecko) draw.io/21.1.2 Chrome/106.0.5249.199 Electron/21.4.3 Safari/537.36" etag="-ggadm0QIQt5EJhiHeNv" version="21.1.2" type="device">
  <diagram name="PÃ¡gina-1" id="O25aOsUnZH8CYDGjZPux">
    <mxGraphModel dx="2061" dy="737" grid="1" gridSize="10" guides="1" tooltips="1" connect="1" arrows="1" fold="1" page="1" pageScale="1" pageWidth="827" pageHeight="1169" math="1" shadow="0">
      <root>
        <mxCell id="0" />
        <mxCell id="1" parent="0" />
        <mxCell id="-XKQbnODHNeDv8jSr7Q_-42" value="" style="verticalLabelPosition=bottom;shadow=0;dashed=0;align=center;html=1;verticalAlign=top;shape=mxgraph.electrical.opto_electronics.led_2;pointerEvents=1;direction=south;fillColor=#000000;" vertex="1" parent="1">
          <mxGeometry x="58" y="231" width="52" height="88" as="geometry" />
        </mxCell>
        <mxCell id="-XKQbnODHNeDv8jSr7Q_-45" value="" style="pointerEvents=1;verticalLabelPosition=bottom;shadow=0;dashed=0;align=center;html=1;verticalAlign=top;shape=mxgraph.electrical.resistors.resistor_2;direction=south;" vertex="1" parent="1">
          <mxGeometry x="70" y="510" width="20" height="100" as="geometry" />
        </mxCell>
        <mxCell id="-XKQbnODHNeDv8jSr7Q_-46" value="" style="pointerEvents=1;verticalLabelPosition=bottom;shadow=0;dashed=0;align=center;html=1;verticalAlign=top;shape=mxgraph.electrical.miscellaneous.chassis;" vertex="1" parent="1">
          <mxGeometry x="40" y="651" width="65" height="32" as="geometry" />
        </mxCell>
        <mxCell id="-XKQbnODHNeDv8jSr7Q_-48" value="" style="pointerEvents=1;verticalLabelPosition=bottom;shadow=0;dashed=0;align=center;html=1;verticalAlign=top;shape=mxgraph.electrical.resistors.resistor_2;direction=west;" vertex="1" parent="1">
          <mxGeometry x="-84" y="407" width="100" height="20" as="geometry" />
        </mxCell>
        <mxCell id="-XKQbnODHNeDv8jSr7Q_-49" value="" style="endArrow=none;html=1;rounded=0;entryX=1;entryY=0.5;entryDx=0;entryDy=0;entryPerimeter=0;endFill=0;startArrow=oval;startFill=1;" edge="1" parent="1" target="-XKQbnODHNeDv8jSr7Q_-48">
          <mxGeometry width="50" height="50" relative="1" as="geometry">
            <mxPoint x="-160" y="417" as="sourcePoint" />
            <mxPoint x="-80" y="540" as="targetPoint" />
          </mxGeometry>
        </mxCell>
        <mxCell id="-XKQbnODHNeDv8jSr7Q_-50" value="&lt;font style=&quot;font-size: 18px;&quot;&gt;`R_B`&lt;/font&gt;" style="text;html=1;strokeColor=none;fillColor=none;align=center;verticalAlign=middle;whiteSpace=wrap;rounded=0;" vertex="1" parent="1">
          <mxGeometry x="-64" y="367" width="60" height="30" as="geometry" />
        </mxCell>
        <mxCell id="-XKQbnODHNeDv8jSr7Q_-51" value="&lt;font style=&quot;font-size: 18px;&quot;&gt;`R_E`&lt;/font&gt;" style="text;html=1;strokeColor=none;fillColor=none;align=center;verticalAlign=middle;whiteSpace=wrap;rounded=0;" vertex="1" parent="1">
          <mxGeometry x="105" y="549" width="60" height="30" as="geometry" />
        </mxCell>
        <mxCell id="-XKQbnODHNeDv8jSr7Q_-52" value="&lt;font style=&quot;font-size: 18px;&quot;&gt;`V_{C C}`&lt;/font&gt;" style="text;html=1;strokeColor=none;fillColor=none;align=center;verticalAlign=middle;whiteSpace=wrap;rounded=0;" vertex="1" parent="1">
          <mxGeometry x="22.5" y="160" width="95" height="30" as="geometry" />
        </mxCell>
        <mxCell id="-XKQbnODHNeDv8jSr7Q_-53" value="&lt;font style=&quot;font-size: 18px;&quot;&gt;`v_{I}`&lt;/font&gt;" style="text;html=1;strokeColor=none;fillColor=none;align=center;verticalAlign=middle;whiteSpace=wrap;rounded=0;" vertex="1" parent="1">
          <mxGeometry x="-220" y="402" width="50" height="30" as="geometry" />
        </mxCell>
        <mxCell id="-XKQbnODHNeDv8jSr7Q_-56" value="" style="endArrow=none;html=1;rounded=0;entryX=1;entryY=0.57;entryDx=0;entryDy=0;entryPerimeter=0;exitX=1;exitY=0;exitDx=0;exitDy=0;exitPerimeter=0;" edge="1" parent="1" target="-XKQbnODHNeDv8jSr7Q_-42">
          <mxGeometry width="50" height="50" relative="1" as="geometry">
            <mxPoint x="79.81818181818198" y="367" as="sourcePoint" />
            <mxPoint x="-60" y="360" as="targetPoint" />
          </mxGeometry>
        </mxCell>
        <mxCell id="-XKQbnODHNeDv8jSr7Q_-57" value="" style="endArrow=oval;html=1;rounded=0;exitX=0;exitY=0.57;exitDx=0;exitDy=0;exitPerimeter=0;endFill=1;" edge="1" parent="1" source="-XKQbnODHNeDv8jSr7Q_-42">
          <mxGeometry width="50" height="50" relative="1" as="geometry">
            <mxPoint x="-20" y="310" as="sourcePoint" />
            <mxPoint x="80" y="200" as="targetPoint" />
          </mxGeometry>
        </mxCell>
        <mxCell id="-XKQbnODHNeDv8jSr7Q_-58" value="" style="endArrow=none;html=1;rounded=0;entryX=1;entryY=1;entryDx=0;entryDy=0;entryPerimeter=0;exitX=0;exitY=0.5;exitDx=0;exitDy=0;exitPerimeter=0;" edge="1" parent="1" source="-XKQbnODHNeDv8jSr7Q_-45">
          <mxGeometry width="50" height="50" relative="1" as="geometry">
            <mxPoint x="-30" y="510" as="sourcePoint" />
            <mxPoint x="79.81818181818198" y="467" as="targetPoint" />
          </mxGeometry>
        </mxCell>
        <mxCell id="-XKQbnODHNeDv8jSr7Q_-60" value="" style="endArrow=none;html=1;rounded=0;entryX=0.62;entryY=0;entryDx=0;entryDy=0;entryPerimeter=0;exitX=1;exitY=0.5;exitDx=0;exitDy=0;exitPerimeter=0;" edge="1" parent="1" source="-XKQbnODHNeDv8jSr7Q_-45" target="-XKQbnODHNeDv8jSr7Q_-46">
          <mxGeometry width="50" height="50" relative="1" as="geometry">
            <mxPoint x="20" y="820" as="sourcePoint" />
            <mxPoint x="70" y="770" as="targetPoint" />
          </mxGeometry>
        </mxCell>
        <mxCell id="-XKQbnODHNeDv8jSr7Q_-61" value="" style="verticalLabelPosition=bottom;shadow=0;dashed=0;align=center;html=1;verticalAlign=top;shape=mxgraph.electrical.transistors.npn_transistor_5;fillColor=#000000;" vertex="1" parent="1">
          <mxGeometry x="16" y="367" width="64" height="100" as="geometry" />
        </mxCell>
      </root>
    </mxGraphModel>
  </diagram>
</mxfile>
